<?xml version="1.0" encoding="utf-8"?>
<!-- Generator: Adobe Illustrator 24.1.1, SVG Export Plug-In . SVG Version: 6.00 Build 0)  -->
<svg version="1.1" id="Layer_1" xmlns="http://www.w3.org/2000/svg" xmlns:xlink="http://www.w3.org/1999/xlink" x="0px" y="0px"
	 viewBox="0 0 73 64.4" style="enable-background:new 0 0 73 64.4;" xml:space="preserve">
<style type="text/css">
	.st0{fill:#FFFFFF;}
	.st1{fill:#2B5999;}
	.st2{fill:#24813C;}
	.st3{fill:#CA1E2E;}
</style>
<circle class="st0" cx="36.5" cy="32.2" r="30.2"/>
<path class="st1" d="M56.3,29.5c-0.6-0.6-5.1-5.7-5.6-6.3c-0.8-0.8-1.9-1.4-2.9-1.4l-5-0.2c-1,0-1.8,0.8-1.8,1.8v8.2
	c0,1-0.8,1.8-1.8,1.8H16.4c-1,0-1.8,0.8-1.8,1.7v5.3c0.1,0.9,0.9,1.5,1.8,1.5h3.5c0.6-3.2,3.5-5.6,6.9-5.6c1.9,0,3.7,0.7,5,2
	c1,1,1.7,2.2,1.9,3.6h7.4c0.6-3.2,3.5-5.6,6.9-5.6c1.9,0,3.7,0.7,5,2c1,1,1.7,2.2,1.9,3.6h2.6c0.9,0,1.7-0.7,1.8-1.5v-6.6
	C59.3,32.7,56.9,30.1,56.3,29.5L56.3,29.5z M53.2,31h-9.7c-0.4,0-0.7-0.4-0.7-0.9v-5.6c0-0.5,0.3-0.9,0.7-0.9l3.7,0.1
	c0.9,0,1.7,0.4,2.4,1.2c0,0,4.3,4.9,4.6,5.2C54.2,30.2,54.5,31,53.2,31L53.2,31z M26.8,38.2c-2.9,0-5.2,2.2-5.2,5s2.3,5,5.2,5
	s5.2-2.2,5.2-5C32,40.5,29.6,38.2,26.8,38.2L26.8,38.2z M26.8,45.4c-1.3,0-2.3-1-2.3-2.2s1-2.2,2.3-2.2c1.2,0,2.3,1,2.3,2.2
	C29,44.4,28,45.4,26.8,45.4L26.8,45.4z M48,38.2c-2.9,0-5.2,2.2-5.2,5s2.3,5,5.2,5s5.2-2.2,5.2-5C53.2,40.5,50.9,38.2,48,38.2
	L48,38.2z M48,45.4c-1.3,0-2.3-1-2.3-2.2s1-2.2,2.3-2.2c1.2,0,2.3,1,2.3,2.2C50.2,44.4,49.2,45.4,48,45.4"/>
<g>
	<g>
		<polygon class="st0" points="38.9,30.8 38.8,30.8 30.8,30.8 22.7,30.8 14.6,30.8 14.6,16.3 22.7,16.3 30.8,16.3 38.8,16.3 
			38.9,30.8 		"/>
	</g>
</g>
<g>
	<rect x="14.6" y="16.3" class="st2" width="8.1" height="14.5"/>
	<rect x="30.8" y="16.3" class="st3" width="8.1" height="14.5"/>
</g>
</svg>
