<?xml version="1.0" encoding="utf-8"?>
<!-- Generator: Adobe Illustrator 24.1.1, SVG Export Plug-In . SVG Version: 6.00 Build 0)  -->
<svg version="1.1" id="Layer_1" xmlns="http://www.w3.org/2000/svg" xmlns:xlink="http://www.w3.org/1999/xlink" x="0px" y="0px"
	 viewBox="0 0 73 64.4" style="enable-background:new 0 0 73 64.4;" xml:space="preserve">
<style type="text/css">
	.st0{fill:#FFFFFF;}
	.st1{fill:#2B5999;}
</style>
<circle class="st0" cx="36.5" cy="32.2" r="30.2"/>
<path class="st1" d="M31.4,19.3c0.6,0,1-0.5,1-1c0-2.3,1.9-4.1,4.1-4.1c2.3,0,4.1,1.8,4.1,4.1c0,0.6,0.5,1,1,1c0.6,0,1-0.5,1-1
	c0-3.4-2.8-6.1-6.2-6.1s-6.2,2.8-6.2,6.2C30.3,18.9,30.8,19.3,31.4,19.3L31.4,19.3z M47.9,22.4c0-0.9-0.7-1.6-1.6-1.6H26.8
	c-0.9,0-1.6,0.7-1.6,1.6l-2.5,26.3c0,0.9,0.7,1.6,1.6,1.6h24.3c0.9,0,1.6-0.7,1.6-1.6L47.9,22.4L47.9,22.4z M46.3,46.4
	c-0.2,0.2-0.4,0.3-0.7,0.3H27.3c-0.5,0-0.9-0.4-0.9-0.9s0.4-0.9,0.9-0.9h17.3L44,38.4c0-0.5,0.3-0.9,0.8-1c0.5,0,0.9,0.3,1,0.8
	l0.7,7.5C46.5,45.9,46.4,46.2,46.3,46.4"/>
</svg>
