<?xml version="1.0" encoding="utf-8"?>
<!-- Generator: Adobe Illustrator 24.1.1, SVG Export Plug-In . SVG Version: 6.00 Build 0)  -->
<svg version="1.1" id="Layer_1" xmlns="http://www.w3.org/2000/svg" xmlns:xlink="http://www.w3.org/1999/xlink" x="0px" y="0px"
	 viewBox="0 0 73 64.4" style="enable-background:new 0 0 73 64.4;" xml:space="preserve">
<style type="text/css">
	.st0{fill:#FFFFFF;}
	.st1{fill:#2B5999;}
</style>
<circle class="st0" cx="36.5" cy="32.2" r="30.2"/>
<path class="st1" d="M31.2,23.4c0-2.9,2.4-5.3,5.3-5.3s5.3,2.4,5.3,5.3v4.3h4.3v-4.3c0-5.3-4.3-9.6-9.6-9.6s-9.6,4.3-9.6,9.6v4.3
	h4.3V23.4L31.2,23.4z M29.2,22c-0.1,0-0.1,0-0.2,0c-0.2-0.1-0.4-0.2-0.5-0.4c-0.1-0.2-0.1-0.4-0.1-0.6c1.1-3.4,4.2-5.8,7.8-5.9
	c0.5,0,0.8,0.3,0.8,0.8c0,0.2-0.1,0.4-0.2,0.6c-0.1,0.2-0.3,0.2-0.6,0.3c-2.9,0.1-5.4,2-6.3,4.8C29.9,21.8,29.5,22,29.2,22L29.2,22z
	 M46.3,29.1H26.7c-2.1,0-3.8,1.7-3.8,3.8v12c0,2.1,1.7,3.8,3.8,3.8h19.5c2.1,0,3.8-1.7,3.8-3.8v-12C50.1,30.8,48.4,29.1,46.3,29.1
	L46.3,29.1z M27.6,33.4c-0.1,0-0.3,0.1-0.3,0.3v10.9c0,0.5-0.4,0.9-0.9,0.9s-0.9-0.4-0.9-0.9V33.7c0-1.2,0.9-2.1,2.1-2.1
	c0.5,0,0.9,0.4,0.9,0.9C28.5,33,28.1,33.4,27.6,33.4L27.6,33.4z M38.1,39v3.3c0,0.9-0.7,1.6-1.6,1.6c-0.9,0-1.6-0.7-1.6-1.6V39
	c-0.7-0.5-1.1-1.3-1.1-2.2c0-1.5,1.2-2.7,2.7-2.7s2.7,1.2,2.7,2.7C39.2,37.7,38.8,38.5,38.1,39"/>
</svg>
